<?xml version="1.0" encoding="utf-8"?>
<!-- Generator: Adobe Illustrator 28.0.0, SVG Export Plug-In . SVG Version: 6.00 Build 0)  -->
<svg version="1.1" id="Vrstva_1" xmlns="http://www.w3.org/2000/svg" xmlns:xlink="http://www.w3.org/1999/xlink" x="0px" y="0px"
	 viewBox="0 0 595.3 323.9" style="enable-background:new 0 0 595.3 323.9;" xml:space="preserve">
<style type="text/css">
	.st0{fill:#808080;}
	.st1{fill:#4D4D4D;}
	.st2{fill:#1A1A1A;}
	.st3{fill:#E5E5E5;}
	.st4{fill:#B3B3B3;}
	.st5{fill:#FFFFFF;}
</style>
<polygon class="st0" points="386.5,125.2 379,115.4 353.5,148.3 368.6,148.3 "/>
<polygon class="st1" points="376.1,111.6 366,98.3 327.4,148.3 347.8,148.3 "/>
<polygon class="st2" points="363.2,94.7 349.9,77.1 294.8,148.3 321.7,148.3 "/>
<polygon points="260,148.2 191.4,148.2 298.6,8.6 310.9,25.7 307.3,29.8 333.5,55.3 347,73.3 289,148.3 "/>
<polygon class="st3" points="392.4,148.3 398.2,140.7 404.1,148.3 "/>
<polygon class="st4" points="395.5,137 386.7,148.3 374.4,148.3 389.4,129 "/>
<path class="st5" d="M324.4,64.3l-23-22.3c0,0-7.1,11.7-11.2,17.1C286,64.4,279,73.5,279,73.5l19.1,16.3c0,0,9.1-10.3,14.5-15.4
	C318.1,69.3,324.4,64.3,324.4,64.3"/>
<path class="st5" d="M224.8,142.7c5.7-11.8,15-21,21.6-27c0-0.8,0.4-1.5,1.4-2.7c1.4-1.4,2.8-2,3.8-1c0.6,0.6,0.4,2-1,3.7
	c-1.4,1.4-2.4,2-3.5,1.4c-3.5,3.1-10.6,10.1-14,15c-4.5,5.7-6.6,9.2-9,13.5c0.4,0.5,0.6,1.3,1.9,0.9c4.8-1.2,2.6-5.1,3-6.5
	c0.6-1.6,5.8-5.2,10.7-7.7c4.5-2.2,9.4-3.8,16.2-4.8c7.2-1.1,12-0.5,15-4.1c1.9-2.6,3.4-7.3,5-10.9c1.7-3.5,2.4-5,4.8-7.8
	c3.2-3.2,6.9-4.8,6.9-4.8l-17.2-14.4c0,0-10.2,8.9-20.4,20.6c-9.1,10.6-18.4,21.4-23.8,32.3C225.6,139.5,224.8,141.7,224.8,142.7"/>
<polygon class="st5" points="304.8,31.6 333.8,59.1 328.8,64.3 299.9,36.9 "/>
<path class="st5" d="M276.5,75.6l19.6,16.7c1.7,1.4,2,4,0.6,5.6l-0.2,0.3c-1.4,1.7-4,1.8-5.7,0.3l-19.6-16.6c-1.7-1.5-1.9-4-0.6-5.7
	l0.2-0.3C272.3,74.3,274.8,74.1,276.5,75.6"/>
<polygon points="15.3,109.9 200.5,109.9 197.5,113.4 15.3,113.4 "/>
<polygon points="394.5,109.9 579.7,109.9 579.7,113.4 397.3,113.4 "/>
<rect x="15.3" y="306" width="564.3" height="3.5"/>
<path d="M531.3,217c-14.4-3.7-24.3-6.2-30-7.5c-10.7-3-18.7-5.6-25.1-8.6c-5.6-2.5-10.7-6.3-14.4-11.3c-1.4-2.1-2.4-4.1-3.3-6.2
	c-2.5,0.3-4.5,1-5.6,1.9c-2.2,2.2-3.6,5.8-3.6,11v33.9l8.2-1.9c6.2,11.2,13.1,20.6,20.6,27.5c9.4,8.6,19.4,13.7,30.7,15l8.8,0.6
	c9.9,0,18.7-2.4,25.6-7.5c8.1-6.2,12.4-13.8,12.4-23.2c0-6.8-2.4-11.8-7.5-16.1C544.4,221.4,538.3,218.3,531.3,217 M100.6,152.7
	l-23,63.3h48L100.6,152.7z M50.8,249.9l45.4-115.7h19.7l45.5,116.3c3.8,9.6,8.3,16.1,12.1,19.2c0.3,0.2,0.7,0.5,1.2,0.7
	c0.9-2.3,1.4-6,1.4-10.9v-64.6c0-4-1.3-7-4-8.3c-2.2-1.4-5.8-2.2-10.2-2.2v-4.9H209h8c7,0,11.9,0.4,14.9,0.9c3.5,0.8,6.6,1.7,9.2,3
	c5.8,2.7,9.4,6.2,11.4,10.2c1.8,3.5,2.7,7.8,2.7,13.6c0,6.6-2.7,12.2-8.4,16.7c-4.8,4-11.4,6.6-18.5,7.4c2.7,3.5,6.7,8.9,11,15
	c4,5.7,7.9,10.9,11.4,16.3c3,4.4,6.2,7.9,9.2,9.6c1.7,1.3,4.9,2.2,8.4,3v4h-24.1l-33-47h-20.7v30.4c0,4.4,0.9,7.9,3.2,9.6
	c1.7,2.2,5.7,3,11.4,3v4h-19.4h-60.1v-6.3c5.8,0,9.6-0.6,12.1-3.2c3.2-1.9,4.4-5,4.4-8.8c-0.6-3.9-3.8-10.9-7.6-20.5
	c-1.9-6.5-3.9-10.9-5-14.7H74.4c-3.1,8.9-5.8,16.6-7.6,21.6c-1.9,5.9-2.5,10.9-2.5,14.2s1.9,6.3,4.4,7.6c2.7,1.9,7.1,3.2,13.4,3.8
	v6.3H25.9v-5.7c6.5-0.6,10.7-3.1,14.6-7C45.1,262.7,48.2,256.9,50.8,249.9 M190.6,193.8v32.6h17.6h5.7c17.6,0,26-7.5,26-22.5
	c0-6.9-3.1-11.7-10.2-14.8c-4.8-2.6-11.4-4-18.9-4c-5.3,0-9.7,0.4-12.4,1.4C193.2,187.8,190.6,190.5,190.6,193.8 M258.1,233.9
	c0,13.7,4.5,25.1,13.2,34.3c8.9,9.3,19.9,13.5,33.4,14.8h3.5c6.6,0,12.7-1.3,18.4-3c6.2-2.2,11.1-5.3,15-8.8l4.8,9.6h7v-29.4
	c0-4.8,0.9-8.4,2.7-10.7c1.8-1.7,4.8-3,9.7-3v-4h-40.5v4c5.3,0,9.3,1.7,11.4,4.4c2.2,2.2,3.2,5.8,3.2,9.7c0,7.5-3.2,13.7-9.8,18.4
	c-5.6,4-13.2,6.2-21.5,6.2c-9.2,0-16.7-4-22.8-11.9c-6.6-8.4-10.2-19.4-10.2-32.5v-6c0-11.8,3.5-21.6,9.6-29
	c6.2-7,13.7-10.5,21.9-10.5c7.1,0,13.7,2.2,20.3,7.1c7.1,4.4,13.2,11.4,18.9,20.7l5.7-1.9l-9.2-31.1h-4.4l-2.6,7.1
	c-8-6.2-17.6-9.3-28.2-9.3c-13.2,0-24.6,4.8-34.3,14C263.4,203.1,258.1,216.7,258.1,233.9 M457.1,178.7c-0.5-2.2-0.8-4.6-0.8-7.1
	c0-5.8,1.3-11.4,4.5-17c3-7.5,9.4-13.1,17.4-16.3c7.5-3.7,16.8-5.6,26.2-5.6c8.2,0,15.7,1.3,22.6,3.2s12.5,4.3,16.3,8.2l3-8.2h6.9
	l13,38.2l-6.7,2.4c-5.8-9.4-13.2-17.4-21.9-23c-9.5-6.3-19.4-10.1-30.1-10.1c-8.1,0-15,1.9-20.6,5c-5.6,3.7-9.4,8.8-10.1,14.4
	c0,11.2,8.8,19.3,25.6,24.9c15.1,3.7,30.1,7.5,45.1,11.4c8.8,2.4,15.7,6.7,19.9,11.7c5.6,6.2,8.1,13.8,8.1,23.1
	c0,14.3-5.6,26.2-18.1,35.6c-10.5,8.1-23.6,11.1-39.3,11.1c-16.3,0-30.7-3.6-43.2-13l-3.7,9.9h-7.5l-14.4-47.3V253
	c0,8.3-3.1,14.9-8.8,19.7c-6.6,5.7-16.7,7.8-29.1,7.8c-13.2,0-23.3-2.2-30.3-6.1c-7.9-5.3-12.4-13.2-12.4-23.7v-55
	c0-5.3-1.3-9.2-4.4-10.9c-1.3-0.4-4.3-1.3-8.8-1.7v-4.5h42.3v4.5c-6.2,0-10.5,1.4-12.7,4.4c-0.9,1.7-1.7,4.8-1.7,9.2v0.4v53.2
	c0,15.4,10,23.3,29.9,23.3c10.6,0,18.1-2.7,22.4-8.4c3.6-4.3,5.3-11.4,5.3-20.2v-48.8c0-4.8-0.8-8.4-2.6-10.2c-1.7-2.2-5.7-3-11.9-3
	v-4.5h30.6V178.7z"/>
<path d="M573.6,95.3c-0.9-1.2-1.7-2.4-2.6-3.6c0.8-0.1,1.6-0.4,2.2-0.9c0.6-0.5,0.9-1.2,0.9-1.9c0-0.6-0.1-1.2-0.3-1.6
	c-0.3-0.4-0.7-0.9-1.4-1.2c-0.9-0.4-1.8-0.4-2.7-0.4h-6.3v0.6c0.5,0,0.9,0.1,1.2,0.2s0.4,0.5,0.4,0.9v7.8c0,0.5-0.1,0.9-0.3,1.1
	c-0.2,0.3-0.6,0.4-1.3,0.4v0.4h2.7h2.2v-0.4c-0.6,0-1.1-0.1-1.3-0.4c-0.2-0.2-0.4-0.6-0.4-1.1v-3.5h2.4l3.7,5.3h2.8v-0.4
	c-0.4-0.1-0.8-0.2-1-0.4C574.4,96.2,573.9,95.8,573.6,95.3 M566.7,91.2v-3.7c0-0.4,0.3-0.7,0.9-0.9c0.3-0.1,0.8-0.1,1.4-0.1
	c0.9,0,1.6,0.2,2.2,0.4c0.8,0.4,1.2,0.9,1.2,1.7c0,1.7-0.9,2.6-3,2.6H566.7z"/>
<path d="M569.1,81c-5.8,0-10.6,4.8-10.6,10.6s4.8,10.6,10.6,10.6s10.6-4.8,10.6-10.6S574.9,81,569.1,81 M569.1,101.1
	c-5.3,0-9.5-4.3-9.5-9.6s4.2-9.5,9.5-9.5s9.6,4.2,9.6,9.5S574.4,101.1,569.1,101.1"/>
</svg>
